<?xml version="1.0" encoding="UTF-8"?>
<svg id="Capa_2" data-name="Capa 2" xmlns="http://www.w3.org/2000/svg" viewBox="0 0 526 722.3">
  <g id="Capa_1-2" data-name="Capa 1">
    <g id="Capa_1-3" data-name="Capa 1">
      <g id="Layer_1" data-name="Layer 1">
        <g>
          <path d="M409.9,429.9c6.5,29.5,12.9,58.4,19.5,87.3,1,4.4,.4,7.3-3.2,10.4-19.4,15.9-38.3,32.4-57.7,48.3-4.2,3.5-5.1,7.1-4.2,12,2,11.6,3.4,23.3,5.9,34.8,1.9,8.5-1.4,13.7-9,18-2.7-7-3-14.3-4.1-21.4-5-31.4-9.7-62.7-14.5-94.1-2.2-14.5-4.6-29.1-6.7-43.6-.4-2.8-1.1-5.3-3-7.5-8.4-9.7-16.5-19.6-25-29.1-6.2-7.1-17.7-7.2-25-.3,4.1,2,8.6,2,12.7,2.4,5.2,.5,8.2,3.5,11.9,7,16.2,15.2,19.4,34.9,21.6,55.8,3.5,33.3,8.5,66.3,12.9,99.4,1.7,13.2,3.6,26.2,5.1,39.3,.7,6.7-5.5,8-9,12.1-3.7-5.2-2.9-10.5-3.6-15.3-6.1-44.1-11.9-88.4-17.6-132.5-1-8-2-15.8-2.7-23.8-1.2-12.6-11-19.7-18-28.7-.5-.6-1.9-.9-2.9-1-16-3-31.8-5.4-48.2-2.3-9,1.6-16.9,3.3-22.5,12.1-4.7,7.5-9.4,14.2-10.5,23.5-4.2,36.2-9.4,72.1-14.2,108.3-2.2,17.3-4.5,34.7-6.6,52-.2,2.3-.4,4.6-1.7,6.6-8.1-2.7-10.2-6.2-9.2-14.2,5.5-42.5,11-85,16.6-127.6,1.6-12.8,3.4-25.4,5.1-38.1,.2-1.6,.6-3.4,1.6-4.7,6.2-8.2,12.5-16.3,18.9-24.4,2-2.5,4.9-2.9,7.9-3.3,4.5-.6,9-1.4,13.9-2.2-6.2-7.2-18.4-7.7-24.4-1-8.6,9.6-17.1,19.5-25.3,29.6-5.1,6.2-4.1,14.4-5.4,21.8-7.4,46.5-14.4,93.1-21.5,139.6-.2,1.9-.4,3.8-2,5.1-8.6-5.1-9.9-7.3-8.6-16.4,1.7-11.9,3.6-23.7,5.7-35.4,1-5.3-.1-9-4.5-12.6-19.1-15.7-37.8-31.7-56.8-47.4-3.9-3.2-5.1-6.1-3.9-11.3,8.2-35.7,16.1-71.3,24.2-107,1-4.3,0-6.5-4-8.2-19.5-9-38.7-18.6-58.2-27.4-5.2-2.4-7.9-5.3-7.4-11.4,.5-7.3,0-14.8,.1-22.1,.1-3.9-1.2-6.2-5-7.7-5.5-2.2-10.6-4.8-16.1-6.8-3.9-1.5-5.4-3.9-5.4-8.1,.1-11.8-.1-23.7,.1-35.4,.1-4.9-1.2-7.8-6-9.6-5.2-1.9-10.2-4.7-15.4-6.8-3.1-1.3-4.6-3.4-4.6-6.7v-69.6c0-1.4,.1-3,2.1-4.7,33.5,14.5,67.3,29.3,102.1,44.6-.1-12.1,1.5-22.4-10.2-30.4-17.2-11.6-33.1-25.5-49.7-38.2-4.4-3.4-6.2-7.1-6.1-12.8,.2-25,.1-50.2,.1-75.3,0-3.9,.6-7.3,3.1-10.6C57.6,42.7,73.9,22.3,90.1,1.9c.6-.8,1.5-1.3,2.2-1.9,2.2,1.5,1,3.2,.6,4.7-5,20-9.9,40.1-15.1,60-2,7.7-1.6,15.4-1.5,23.1,.2,8,.9,15.9,1,24,0,3.8,1.1,6.2,4.4,8.2,23.2,15.3,46.3,30.7,69.3,46.3,3.6,2.4,6,2.2,9.5,0,32-19.7,64.2-39.1,96.2-58.8,4.7-2.9,8.1-3,12.9,0,32.3,20,64.8,39.6,97.3,59.4,3,1.8,5,1.8,7.9-.1,23.2-15.7,46.5-31.2,69.8-46.7,3.1-2,4.5-4.4,4.5-8.2,.1-8.2,.4-16.4,1.1-24.7,1.5-15.2-3.6-29.1-7-43.4-3-12.6-6.2-25.3-9.4-37.9-.4-1.8-1.5-3.5-.5-5.6,2.6-.1,3.4,2.2,4.5,3.7,15.6,19.5,31.1,39.1,46.7,58.4,2.7,3.3,3.7,6.8,3.6,11-.1,25-.2,50.2,0,75.3,0,5.7-1.7,9.4-6.2,12.6-17.6,13.4-34.8,27.4-52.6,40.7-5.2,4-7.5,8.6-7.2,14.9,.1,3.8,0,7.5,0,12.9,34.8-15.2,68.8-30,103.9-45.3v27.1c0,15.8-.1,31.6,0,47.4,0,3.7-.9,5.8-4.5,7.2-5.2,2-10.1,5.1-15.4,7-4.6,1.6-5.7,4.6-5.7,9.1,.2,11.4-.1,22.8,.1,34.1,.1,5.2-1.5,8.3-6.4,10.1-4.9,1.8-9.5,4.4-14.4,6.2-4.5,1.6-6,4.6-5.7,9.1,.2,7.2-.2,14.3,.1,21.5,.4,5.8-2.1,8.6-7.2,10.9-19.1,8.7-38,18.2-57.2,26.9-5.2,2.4-6.6,5.2-4.9,10.6,2.6,5.7,3.6,11.7,5.1,18.2m-233.2,68.4c2.5-11.5,.6-24.2,9.4-34,1.5-1.6,1-4,1-6.1,0-33.1,0-66.1,.1-99.3,0-4.2-1.5-6.6-5.2-8.2-9.9-4.6-19.5-9.5-29.2-14.2-3.7-1.8-5.5-4.2-5.9-8.6-1.7-23-4-46.2-5.9-69.2-.2-3-1-6.2,.6-8.9,2.6-.6,4.5,.6,6.4,1.4,36.3,14,72.7,28.2,108.9,42.4,4.6,1.8,8.6,1.9,13.2,.1,30.8-12.1,61.7-24.2,92.5-36.2,7.5-2.9,15-5.7,22.6-8.5,1.7,3.9,1.2,7.1,1,10.1-2,23.3-4.1,46.5-6,69.8-.2,3.7-1.9,5.7-5,7.2-9.7,4.7-19.5,9.6-29.3,14-4.5,2-6,4.7-6,9.7,.2,30.4,.1,60.7,.1,91.1,0,7-.6,13.9,5.2,19.4,1.5,1.4,1.7,4.7,2.1,7.1,3.1,19.7,6,39.5,9.1,59.2,1.5,9.5,3,18.8,4.6,28.6,11.2-6.7,11.6-7.2,9.4-18.2-2.7-13.7-5.2-27.3-8.2-40.9-4-18-5.9-36-5.2-54.5,.9-22.8,.9-45.5,1.2-68.3,0-3.7,1.2-6.3,3.7-9,12.4-12.8,24.6-25.8,37.1-38.4,4.1-4.2,6.4-8.6,6.6-14.4,.2-8.9,.9-17.7,1.4-26.4,1.1-21.4,2-42.9,3.6-64.3,1.7-22.3,2-22.3-16.6-34.1-4.6-2.9-9.2-5.7-13.9-8.5-1.4-.8-2.7-2-5-1-2.5,7.1-3.5,14.8-4.7,22.4-.9,5.3-3.4,8.2-8.4,10.5-30.5,13.7-60.7,27.6-90.9,41.7-5.1,2.4-9.5,2.5-14.7,0-30.7-14.2-61.3-28.1-91.9-42-4.7-2.2-7-4.9-7.9-10.1-1.2-7.7-2.1-15.7-5.6-23.9-10.4,6.3-20.2,12.5-30.3,18.5-3.7,2.3-5,5.1-4.7,9.4,.7,11.1,1,22.3,1.6,33.4,1.2,24.5,2.6,49.2,3.9,73.7,.2,6.2,2.6,11.1,7,15.6,12.1,12.4,24,25.2,36.1,37.7,2.7,2.9,4.2,5.8,4.2,10,.2,29.7,.7,59.4,1.1,89.2,0,3.8-.4,7.6-1.1,11.3-4.4,21.6-8.5,43.4-12.7,65-1.6,8.2,.9,12,9.9,15.2,3.6-21.8,7.1-43.6,10.7-66.5m26-269.5c18.6,8.5,37.2,16.9,55.7,25.5,3.5,1.6,6.6,1.6,10.1,0,29.5-13.5,59.1-27.1,88.7-40.6,2.6-1.1,4.6-2.5,5.2-5.7,1.4-7.7,2.9-15.3,4.5-22.9,.7-3.5-.6-5.3-3.5-7-6.5-3.7-13-7.6-19.2-11.8-4-2.8-7.2-2.7-11.4-.4-21,11.5-42.2,22.6-63.3,34.1-4.2,2.4-7.6,2.5-12.1,0-20.6-11.8-41.6-23-62.3-34.7-4.2-2.4-7.5-2.2-11.5,.4-6.6,4.4-13.5,8.5-20.2,12.4-2.9,1.6-4.1,3.4-3.2,7.1,1.7,7,2.9,14,4.1,21,.6,3.7,2.4,5.9,5.9,7.5,10.5,5,21.1,9.9,32.5,15.1m125.2,133.3c0-2.8,.4-5.6,0-8.2-.9-6.2,1.7-9.6,7.4-11.9,8.6-3.7,16.9-8.3,25.3-12.1,5.1-2.3,8-5.1,8.2-11.1,.6-11.8,2.1-23.4,2.7-35.2,.2-5.2,2.4-10.2,.6-15.9-1.5,.3-3,.4-4.2,.9-25,9.7-50.1,19.5-75,29.2-3.2,1.3-4.2,3.4-4.2,6.8,.1,27.8,.2,55.7,.1,83.3,0,3.8,1.2,6.3,5.1,6.3,9.2,0,13.6,5.6,16,13.7,.5,1.8,1.5,3.5,2.1,5.2q3.9,9-4.1,14.8c-.2,.1-.2,.8-.5,1.4,8.9,3.4,12,13.2,20.1,19,.4-29-1.1-57.1,.4-86.2m-50-175.2c17.4-9.4,34.6-18.6,52.9-28.5-22.4-13.5-43.3-26.3-64.3-39.2-2.6-1.6-4.6-.8-6.9,.6-19.1,11.6-38.2,23.1-57.2,34.7-1.4,.9-3,1.6-3.5,3.4,1,2,3.1,2.7,4.9,3.5,15.4,8.5,31.1,16.2,45.8,25.5,9.8,6.7,18.3,8,28.3,0m-1,162.7v-46.2c-9.2,6.1-17.4,5.6-25,1.6-2.4,2.8-1.6,5.4-1.6,7.8-.1,27.6-.2,55.1-.1,82.7,0,5.3-1.4,8.3-6.9,9-3.2,.4-6.5,1.1-9.7,1.9-4.7,1.1-5.2,5.7-6.4,9.4-1,3.4,2.4,3.9,4.4,5.2,9.1,5.9,18.4,11.6,27.3,17.6,3.1,2.2,5.9,2.4,9.1,.3,9.7-6.5,19.6-12.6,29.6-18.8,2.5-1.6,3-3.2,2.2-6.2-2-7.7-8-8.3-14-8.9-6.4-.5-9-3.2-8.7-10,.1-14.7-.2-29.4-.2-45.4M461.3,66.3c1,3,1.2,6.2,1.1,9.4-.5,13.4-1.1,26.9-1.1,40.3,0,5.6-2.1,8.9-6.6,11.8-21.6,14.2-43.1,28.6-64.6,43-2.1,1.5-4.7,2.5-6,6.1,9.4,5.7,18.9,11.4,28.1,17.2,3.5,2.3,6.1,1.9,9.5-.8,16.9-13.4,33.8-26.6,50.8-39.7,3-2.3,4.1-4.8,4.1-8.6-.1-23.1-.1-46.3-.1-69.4,0-2.7-.4-5.1-2-7.1-5.7-7.1-11.5-14.3-18.2-22.8,1.9,7.7,3.4,13.6,5,20.6M59,156.9c15.9,12.4,31.6,24.7,47.5,36.9,1.4,1.1,2.7,3.2,4.9,1.9,10.6-6.3,21.2-12.8,32.1-19.4-1.6-3-3.9-4-5.6-5.2-22-14.8-44-29.5-66.1-44.1-3.9-2.5-5.6-5.4-5.7-10.2,0-9.9-.5-19.7-1.1-29.6-.7-11,.4-21.8,3.6-32.4,.6-2,1.6-4,.7-7.2-5,6.2-9.2,12-13.9,17.3-3.4,3.9-5,8-4.6,13.2,1.1,20.6,.6,41.2,0,61.8-.6,7.4,1,13,8.2,17m162.2,177.7c-4.6,1.8-9.4,3.5-14,5.4-2.5,1-4.7,.9-7.1-.4-10.4-5.3-20.7-10.6-31.2-15.9-2.9-1.5-4.2-3.5-4.4-7-.6-13.9-1.7-27.7-2.2-41.6-.1-5.6-2.5-7.5-7.6-7.3-1.5,5.8,.5,11.1,.7,16.6,.6,11.8,1.9,23.5,2.7,35.2,.4,4.6,2.2,7.6,6.7,9.5,9.5,4.2,18.7,9.1,28.2,13.4,4.4,2,6.1,4.6,6.1,9.6-.2,29.8-.1,59.8-.1,89.7,0,2.2-.6,4.4,.6,6.3,7.4-5.9,11.1-15.2,19.9-19.2q-8.1-7.7-3.6-18.5c.6-1.5,1.5-3,1.9-4.7,1.9-7.5,6.6-11.4,14.2-11.5,4.9-.1,6.2-2.7,6.1-7.2-.1-17.3,0-34.5,0-51.9,0-2,.7-4.3-1.6-5.9-5,.9-9.6,3.4-15.3,5.4m145.3,153.6c4.1,20.5,8.1,41.1,12.4,62.2,5.2-2.5,8.4-6.3,12.2-9.1,3.6-2.5,4.7-5.6,3.5-10.2-7.6-28.1-11.5-56.8-15.9-85.5-2.1-13.8-1.1-24.7,9.6-33.8,3.6-3,4.4-7,2.6-11.4-2.5-6.5-1.4-12.6,1.4-19,3.5-8.3,6.7-16.8,9.7-25.3,1.5-4.2,2.7-8.6,1.6-14.4-12.4,13-23.9,25.3-35.5,37.3-2.1,2.3-2.1,4.9-2.1,7.7-.4,27.6-.7,55.1-1.2,82.7,0,6,.1,12,1.7,18.8m-204.5-36.2c-.4-21.9-.7-43.8-1-65.6,0-3.7-1.1-6.3-3.7-9-9.7-10-19.4-20.2-29.1-30.4-1.2-1.3-2.1-3.2-4.7-3.3,0,4.7,.1,9.1,1.9,13.5,3.7,9.6,7.4,19.2,11.1,28.8,1.1,3,2.1,6.2,.9,9.2-3.6,8.6-1,15.3,5.4,21.2,1.5,1.4,2.6,3.3,4.1,4.8,3.4,3.3,3.7,7.1,3.2,11.5-4.5,33.5-8.7,67.2-17.7,99.8-.6,2-1.1,4.2,.7,5.8,4.7,3.9,9.5,7.8,15.4,12.6,4.6-33.4,16.1-64.5,13.5-98.9M471,239.9c-8.9,3.5-17.7,7.2-26.7,10.5-4.1,1.5-5.9,3.7-5.7,8.3,.4,8.6,0,17.3,.1,25.9,0,1.8-.6,3.9,1.5,5.2,.6-.1,1.2-.1,1.7-.4,23-10.4,46-20.9,68.8-31.2,1.7-.8,3.5-1.9,3.5-4v-31.2c-14.9,5.7-28.5,11.1-43.2,16.9m-458.5,.9c0,1.9,.2,3.8,0,5.7-1.1,7.3,2,11.1,8.9,14,19.1,8.1,37.8,17.2,56.8,25.8,1.9,.9,3.6,2.3,6.9,1.3,0-9.5-.2-19.4,.1-29.1,.1-4.6-1.7-6.7-5.9-8.2-20-7.7-39.8-15.7-59.7-23.5-1.9-.8-3.6-2-6.2-1.4-1.5,4.7-.5,9.5-.9,15.4m91.7,2.4c-30.1-13.4-60.3-26.7-90.7-40.2-1.9,11.8-1.6,12.3,7.4,15.8,22.1,8.7,44.1,17.6,66.2,26.2,4.4,1.6,6.1,4.2,6,8.9-.2,11.1-.1,22.3,0,33.5,0,2.5-.5,5.3,2.2,6.7,4,2,7.9,4.4,13.2,5.4-.6-13.9-1-27.3-2.1-40.7-.4-5,.5-10.2-2.2-15.6m312,270.2c-7.1-31.6-14.4-63.2-21.7-95.9-5.5,5.4-10.6,9.1-9.4,16.3,4,23.8,5.1,48.1,11.2,71.6,2.1,8.2,3.1,16.8,6.9,25.4,3.6-2.9,6.6-5.4,9.7-7.8,2.8-2.3,4.6-4.8,3.3-9.6m-284.7-11.5c4.9-21.1,5.9-42.9,9.9-64.1,1.7-9.1-2.2-14.2-8.1-19.2-2.2,1.9-2.2,4.4-2.7,6.6-6.4,28-12.5,55.8-18.7,83.7-2.4,10.6,1.5,17.2,12.9,21.1,2.1-9.2,4.2-18.2,6.7-28.1M514.5,210.2c-.2-2,.4-4.2-.9-6.3-.7,.1-1.6-.1-2.4,.3-28.8,12.6-57.6,25.3-86.4,37.8-2.6,1.1-3.6,3-3.7,5.9-.7,15.2-1.6,30.2-2.4,45.4-.1,1.9-.9,4.2,.9,5.9,11-3.3,11.1-3.4,11.1-14.7,0-10.1,.1-20.2-.1-30.4-.1-4.9,1.7-7.6,6.4-9.4,23.7-9.1,47.3-18.6,70.9-28,2.7-.8,6.2-1.3,6.6-6.5M74.3,308.3c17.9,8.2,14.4,2.9,14.7,22.5v4.4c0,1.6,.6,2.9,2.1,3.5,6.2,2.7,12.1,6.2,19.1,8,1.5-9.4-.9-17.8-.6-26.4,.1-4.7-1.6-7.2-5.9-9.1-19.7-8.9-39.5-18-59.2-26.9-1.7-.8-3.6-2.3-6-1.4-1.9,5.8-.7,9.9,5.5,12.3,10.1,4,19.7,8.6,30.3,13.1m414.6-19.1c0-2.3,.9-4.6-1.1-6.6-.6,0-1.2-.1-1.7,.1-21.6,9.9-43.2,19.7-64.8,29.5-1.5,.8-3.4,1.4-3.5,3.3-.6,10.2-2.4,20.4-1.1,30.6,15-2.3,18.1-5.7,18-19.9,0-1.5,.1-2.9,0-4.4-.4-5.1,1.7-8.1,6.5-10.1,9.9-3.9,19.6-8.1,29.2-12.6,6-2.8,13-3.9,18.5-9.9m-.3,25c.5-4.6,.7-9.1-.5-14.2-12.6,5.4-24.7,10.8-36.8,16.1-9.7,4.3-11.2,8.1-7.6,19.4,3.6-1.5,7.2-2.9,10.7-4.6,11.3-5.5,23.4-9,34.2-16.7m-421.8-.5c-9.2-4-18.5-8.1-28.6-12.5,.4,6.1-3,12.4,2.1,15.2,12.9,6.7,26.3,12,39.6,18,3-12.1,2.1-14-7.6-18.2-1.6-.9-3.1-1.5-5.5-2.5m383.1,47.8c-12.7,5.6-25.5,11.4-38.5,16.4-6.4,2.4-8,7.1-9.4,12.8,.7,.1,1.2,.3,1.5,.1,18.5-8.7,37-17.3,55.3-26.1,3.4-1.6,3.7-4,1.9-7.3-3.6,.4-6.8,2.3-10.8,4.1m-343.1,14.1c-13.5-5.8-27-11.6-40.5-17.5-2.1,3.9-.4,5.4,2.1,6.6,4,1.9,7.9,3.8,11.9,5.7,14.6,7,29.2,13.9,44.5,21.1-.5-5.8-2.5-9.6-7.4-11.5-3.2-1.1-6.5-2.6-10.6-4.4m-40.1-33.9c-3.4,3.5-2.4,7,2.9,9.2,14.1,6.2,28.2,12.3,42.3,18.5,1.4,.6,2.9,1.8,4.7,.5-.4-4.9-2.9-7.8-7.4-9.7-13.9-5.9-27.8-12.1-42.5-18.5m355.1,16.6c-4.6,2.5-11.1,3-11.1,10.6,.6,.1,1.1,.3,1.4,.1,15.6-6.6,31.3-13.3,47-20,3.5-1.5,3.5-4.2,2-7.8-13,5.6-25.6,11.2-39.3,17.1Z"/>
          <path d="M268.2,573.9c5.5-9,6.5-18.3,6.5-28.2-.1-17.8,.6-35.8,1.1-53.6,.1-2.4-1.1-6.7,3-6.2,3.7,.4,8.9,.9,8.9,6.8-.2,16.2-.5,32.4-.7,48.6,0,1.5-.5,2.9-.2,4.4,1.4,12.6-1.7,24.2-8.4,34.8-1.9,3-1.9,6.3-1.9,9.7,0,38.7-.2,77.5,.2,116.2,.1,8.6-4.6,12.1-10.5,15.9-2.6-2.2-1.7-4.6-1.7-6.7,0-41.9,.1-83.9,0-125.7-.1-5.5,.5-10.6,3.7-16Z"/>
          <path d="M239.4,494.8c-.9-7.3,4.5-7.6,8.6-9.1,1.7-.6,2.6,.9,2.9,2.5,.2,1.4,.2,2.9,.4,4.4,.4,19,1.1,37.9,1.1,56.9,0,8.1,1.4,15.4,5.4,22.3,4,6.8,5,13.9,4.9,21.8-.2,40.9,0,81.8,0,122.7,0,2,.5,4.2-.9,5.9-8.4-3.3-11.2-7.2-11.2-15.2,0-36.3-.2-72.5,.1-108.8,.1-9.4-1-18-6-25.9-3.4-5.6-4.2-11.6-4.2-18.1-.1-19.7-.7-39.3-1.1-59.4Z"/>
          <path d="M222.4,594.1c-2.5,24.4-5,48.3-7.2,72.1-.5,4.6-.9,9.1-2.1,13.5-8.2-3.2-10.6-6.3-9.9-14.2,2.7-27.8,5.6-55.7,8.4-83.5,2.2-23,4.5-46,6.6-69.1,.4-4.2,.5-8.5,1.4-12.5,1.2-6.1,6.9-6.2,12.6-8.7-3.2,34.8-6.4,68.3-9.8,102.4Z"/>
          <path d="M310,524.9c1.9,20,3.7,39.5,5.6,58.9,2.7,27.2,5.5,54.4,8.1,81.6,.7,8.7-.6,10.4-10.5,14.9-6.2-62.6-12.4-124.7-18.6-186.9,8.6-.4,12.4,3,13,10.8,.6,6.6,1.6,13.3,2.4,20.7Z"/>
          <path d="M296.5,602.8c1.2,29.5,2.1,58.3,2.5,87.1,.1,7.6-6.1,9.1-9.7,12.9-2.7-1.6-2.1-3.8-2.1-5.6-.9-31.6-1.5-63.1-2.4-94.7-.2-9.6,6-15.9,10.4-23.4,1.8,7.7,.9,15.5,1.3,23.7Z"/>
          <path d="M240.5,592.8c3,4.9,1.9,9.9,1.7,14.7-.6,28.8-1.5,57.7-2.2,86.5-.1,2.7,.5,5.4-1,8-6.2-1.4-11-6.2-11-11.5,.7-36.4,1.7-72.9,2.6-109.3,0-.6,.4-1.1,.9-2.8,4.3,4.3,6.3,9.3,9,14.4Z"/>
          <path d="M301.2,473.9c1.9,2.4,4.7,3.5,5.1,7.8-6.5-1.5-13.2,1.6-18.6-4.3-2.4-2.7-6.1-2.3-9.2-3.2-11.4-3.3-22.6-1.4-34,.5-1.6,.3-3.6,.8-4.5,1.9-5.2,6.2-12.1,4-19,4,7.7-17.2,23.1-20.1,38.3-20.2,14.8,0,30.9-1.3,41.9,13.5Z"/>
          <path d="M257.3,483.8c9.2-4.3,12.5-2.2,11.6,7.2-1.1,11.3-2.5,22.5-3.7,33.8-.1,1-.2,2.2-2.5,2.5-2.2-14.4-5.1-28.6-5.4-43.5Z"/>
          <path d="M311.8,317.7c-4.5-2-9-3.4-13.1-7.1,5.7-4.7,9.6-10.9,18-11.6,9.7-.9,19.4-2.8,29-4.4,7.1-1.3,11.4,3.7,17.1,6.8-4.6,5.8-8.2,11.4-15.9,12-11.7,.9-23,4.3-35.1,4.3Z"/>
        </g>
      </g>
    </g>
  </g>
</svg>